<svg width="100" height="100" viewBox="0 0 100 100" fill="none" xmlns="http://www.w3.org/2000/svg">
<rect width="100" height="100" rx="10" fill="white"/>
<path d="M45.76 74.704C42.9013 74.704 40.4053 74.192 38.272 73.168C36.1813 72.1013 34.3893 70.6293 32.896 68.752L39.616 62.288C40.384 63.3547 41.28 64.1653 42.304 64.72C43.3707 65.2747 44.5653 65.552 45.888 65.552C47.168 65.552 48.2773 65.296 49.216 64.784C50.1547 64.2293 50.9013 63.4613 51.456 62.48C52.0107 61.456 52.288 60.1973 52.288 58.704V28.816H62.4V58.128C62.4 61.4987 61.7173 64.4213 60.352 66.896C58.9867 69.3707 57.0667 71.2907 54.592 72.656C52.1173 74.0213 49.1733 74.704 45.76 74.704Z" fill="black"/>
</svg>
